<svg version="1.1" xmlns="http://www.w3.org/2000/svg" xmlns:xlink="http://www.w3.org/1999/xlink" width="210.88148" height="119.71057" viewBox="0,0,210.88148,119.71057"><g transform="translate(-134.55926,-119.72876)"><g data-paper-data="{&quot;isPaintingLayer&quot;:true}" fill-rule="nonzero" stroke-linecap="butt" stroke-linejoin="miter" stroke-miterlimit="10" stroke-dasharray="" stroke-dashoffset="0" style="mix-blend-mode: normal"><path d="M180.36511,235.45814l-26.6268,-55.91629l118.61032,-56.4811l26.6268,55.91629z" fill="#fff100" stroke="#ffbd33" stroke-width="5"/><path d="M256.21199,236.93926l-67.44587,-0.31791l110.86877,-56.48111l26.6268,55.9163z" fill="#fff100" stroke="#ffbd33" stroke-width="5"/><path d="M273.58348,159.55185c0,9.93461 -7.98232,17.9882 -17.82901,17.9882c-9.8467,0 -17.82901,-8.05359 -17.82901,-17.9882c0,-9.93461 7.98232,-17.9882 17.82901,-17.9882c9.84669,0 17.82901,8.0536 17.82901,17.9882z" fill="#ffbd33" stroke="#fff88f" stroke-width="2.5"/><path d="M302.59937,216.79422c0,4.4051 -3.88613,7.97613 -8.67991,7.97613c-4.79379,0 -8.67991,-3.57103 -8.67991,-7.97613c0,-4.4051 3.88613,-7.97614 8.67991,-7.97614c4.79379,0 8.67991,3.57104 8.67991,7.97614z" fill="#ffbd33" stroke="#fff88f" stroke-width="2.5"/><path d="M186.00699,219.84392c0,4.53466 -0.12921,11.26043 -4.33996,11.26043c-4.21076,0 -3.16699,-3.44148 -5.51291,-9.3837c-1.66517,-4.21786 -5.73561,-11.49502 -1.52486,-11.49502c4.21076,0 11.37773,5.08362 11.37773,9.61828z" fill="#ffbd33" stroke="#fff88f" stroke-width="2.5"/><path d="M225.1839,186.7664c0,5.83028 -5.04146,10.55666 -11.26043,10.55666c-6.21896,0 -11.26043,-4.72638 -11.26043,-10.55666c0,-5.83028 5.04147,-10.55665 11.26043,-10.55665c6.21896,0 11.26043,4.72637 11.26043,10.55665z" fill="#ffbd33" stroke="#fff88f" stroke-width="2.5"/><path d="M238.32107,230.04868c0,2.26733 -2.46822,4.10537 -5.51292,4.10537c-3.0447,0 -5.51292,-1.83804 -5.51292,-4.10537c0,-2.26733 2.46822,-4.10537 5.51292,-4.10537c3.0447,0 5.51292,1.83804 5.51292,4.10537z" fill="#ffbd33" stroke="#fff88f" stroke-width="2.5"/><text transform="translate(136.1175,191.98544) scale(1.03883,1.03883)" font-size="40" xml:space="preserve" fill="#000000" fill-rule="nonzero" stroke="none" stroke-width="1" stroke-linecap="butt" stroke-linejoin="miter" stroke-miterlimit="10" stroke-dasharray="" stroke-dashoffset="0" font-family="Pixel" font-weight="normal" text-anchor="start" style="mix-blend-mode: normal"><tspan x="0" dy="0">CHEDDAR</tspan></text><path d="M270.80652,207.29323c0,11.33666 -8.74254,20.52683 -19.52701,20.52683c-10.78447,0 -19.52702,-9.19018 -19.52702,-20.52683c0,-11.33666 8.74255,-20.52683 19.52702,-20.52683c10.78447,0 19.52701,9.19017 19.52701,20.52683z" fill="#ffbd33" stroke="#fff88f" stroke-width="2.5"/><path d="M232.69086,154.27536c0,3.69251 -2.94085,6.68588 -6.56858,6.68588c-3.62773,0 -6.56859,-2.99337 -6.56859,-6.68588c0,-3.69251 2.94085,-6.68588 6.56859,-6.68588c3.62773,0 6.56858,2.99337 6.56858,6.68588z" fill="#ffbd33" stroke="#fff88f" stroke-width="2.5"/><path d="M189.29128,185.47614c0,7.32024 -5.88171,13.25447 -13.13717,13.25447c-7.25546,0 -13.13717,-5.93422 -13.13717,-13.25447c0,-7.32024 5.88171,-13.25447 13.13717,-13.25447c7.25546,0 13.13717,5.93422 13.13717,13.25447z" fill="#ffbd33" stroke="#fff88f" stroke-width="2.5"/></g></g></svg>